# xmcd
#
# Track frame offsets:
#	150
#	27262
#	55447
#	75895
#	101675
#	140152
#	161767
#	187522
#	214785
#
# Disc length: 3169 seconds
#
# Revision: 0
# Processed by: cddbd v1.4PL0 Copyright (c) Steve Scherf et al.
# Submitted via: EasyCDDAExtractor 4.6.9.1
#
DISCID=710c5f09
DTITLE=Too $hort - Get In Where You Fit In
DYEAR=1993
DGENRE=RAP
TTITLE0=I'm A Player
TTITLE1=Just Another Day
TTITLE2=Gotta Get Some Lovin'
TTITLE3=Money In The Ghetto
TTITLE4=Get In Where You Fit In
TTITLE5=Playboy $hort
TTITLE6=Way Too Real
TTITLE7=It's All Good
TTITLE8=Only The Strong Survive
EXTD=
EXTT0=
EXTT1=
EXTT2=
EXTT3=
EXTT4=
EXTT5=
EXTT6=
EXTT7=
EXTT8=
PLAYORDER=
